<?xml version="1.0" encoding="UTF-8"?>
<svg xmlns="http://www.w3.org/2000/svg" xmlns:xlink="http://www.w3.org/1999/xlink" width="500px" height="250px" viewBox="0 0 500 250" version="1.1">
<g id="surface1">
<path style=" stroke:none;fill-rule:nonzero;fill:rgb(0%,67.45098%,84.313725%);fill-opacity:1;" d="M 37.722656 89.335938 C 37.035156 89.335938 36.351562 88.648438 37.035156 87.964844 L 41.839844 81.105469 C 42.523438 80.417969 43.210938 79.734375 44.582031 79.734375 L 131 79.734375 C 131.6875 79.734375 132.375 80.417969 131.6875 81.105469 L 127.570312 87.277344 C 126.886719 87.964844 126.199219 88.648438 124.828125 88.648438 Z M 1.371094 111.28125 C 0.6875 111.28125 0 110.597656 0.6875 109.910156 L 5.488281 103.050781 C 6.171875 102.367188 6.859375 101.679688 8.230469 101.679688 L 118.65625 101.679688 C 119.339844 101.679688 120.027344 102.367188 120.027344 103.050781 L 117.96875 109.910156 C 117.96875 110.597656 116.597656 111.28125 115.914062 111.28125 Z M 59.671875 133.917969 C 58.984375 133.917969 58.300781 133.230469 58.984375 132.542969 L 62.414062 126.371094 C 63.101562 125.6875 63.785156 125 65.15625 125 L 113.167969 125 C 113.855469 125 114.539062 125.6875 114.539062 126.371094 L 113.855469 131.859375 C 113.855469 132.542969 113.167969 133.230469 112.484375 133.230469 Z M 310.699219 84.535156 L 270.234375 94.820312 C 266.804688 95.507812 266.117188 96.195312 263.375 92.078125 C 259.945312 87.964844 257.203125 85.21875 251.714844 83.160156 C 236.625 75.617188 221.535156 77.675781 207.820312 86.589844 C 191.359375 96.878906 183.128906 112.65625 183.128906 132.542969 C 183.128906 151.75 196.84375 167.523438 216.050781 170.265625 C 232.511719 172.324219 246.226562 166.839844 257.203125 154.492188 C 259.257812 151.75 261.316406 149.003906 264.058594 145.574219 L 217.421875 145.574219 C 212.621094 145.574219 211.25 142.148438 212.621094 138.03125 C 216.050781 130.488281 221.535156 118.140625 224.964844 111.96875 C 225.652344 110.597656 227.710938 107.851562 231.136719 107.851562 L 318.929688 107.851562 C 318.246094 114.710938 318.246094 120.886719 317.558594 127.742188 C 314.816406 144.890625 308.640625 161.351562 297.667969 175.070312 C 280.519531 197.703125 257.886719 212.105469 229.082031 216.222656 C 205.074219 219.648438 183.128906 214.847656 163.921875 200.445312 C 146.089844 186.726562 135.800781 168.894531 133.058594 146.949219 C 129.628906 120.886719 137.859375 96.878906 153.636719 76.304688 C 170.78125 53.667969 193.414062 39.265625 221.535156 34.464844 C 244.171875 30.351562 266.117188 33.09375 285.324219 46.125 C 298.355469 54.355469 307.269531 66.015625 313.441406 80.417969 C 314.128906 83.160156 313.441406 83.847656 310.699219 84.535156 Z M 310.699219 84.535156 "/>
<path style=" stroke:none;fill-rule:nonzero;fill:rgb(0%,67.45098%,84.313725%);fill-opacity:1;" d="M 390.261719 218.277344 C 368.3125 217.59375 348.421875 211.417969 331.277344 197.015625 C 316.871094 184.671875 307.957031 168.894531 305.210938 150.378906 C 301.097656 122.941406 308.640625 98.9375 325.101562 77.675781 C 342.933594 54.355469 364.199219 42.695312 393.003906 37.207031 C 417.695312 33.09375 441.015625 35.152344 461.589844 49.554688 C 480.796875 62.585938 492.457031 80.417969 495.886719 103.738281 C 500 136.660156 490.398438 162.722656 468.449219 185.355469 C 452.675781 201.816406 432.785156 211.417969 410.835938 216.222656 C 403.292969 217.59375 396.433594 217.59375 390.261719 218.277344 Z M 447.875 120.886719 C 447.875 117.457031 447.875 115.398438 447.1875 112.65625 C 443.074219 88.648438 421.125 74.929688 397.804688 80.417969 C 375.171875 85.21875 360.769531 99.621094 355.28125 122.257812 C 351.164062 140.773438 360.082031 159.980469 377.230469 168.210938 C 390.261719 173.695312 403.976562 173.011719 416.324219 166.839844 C 436.214844 157.234375 446.503906 141.460938 447.875 120.886719 Z M 447.875 120.886719 "/>
</g>
</svg>
