<svg xmlns="http://www.w3.org/2000/svg" width="500" height="250" fill="rgb(0%,67.45098%,84.313725%)" xmlns:v="https://vecta.io/nano"><path d="M37.723 89.336c-.687 0-1.371-.687-.687-1.371l4.805-6.859c.684-.687 1.371-1.371 2.742-1.371H131c.688 0 1.375.684.688 1.371l-4.117 6.172c-.684.688-1.371 1.371-2.742 1.371zM1.371 111.281c-.684 0-1.371-.684-.684-1.371l4.801-6.859c.684-.684 1.371-1.371 2.742-1.371h110.426c.684 0 1.371.688 1.371 1.371l-2.059 6.859c0 .688-1.371 1.371-2.055 1.371zm58.301 22.637c-.687 0-1.371-.687-.687-1.375l3.43-6.172c.688-.684 1.371-1.371 2.742-1.371h48.012c.688 0 1.371.688 1.371 1.371l-.684 5.488c0 .684-.687 1.371-1.371 1.371zm251.027-49.383L270.234 94.82c-3.43.688-4.117 1.375-6.859-2.742-3.43-4.113-6.172-6.859-11.66-8.918-15.09-7.543-30.18-5.484-43.895 3.43-16.461 10.289-24.691 26.066-24.691 45.953 0 19.207 13.715 34.98 32.922 37.723 16.461 2.059 30.176-3.426 41.152-15.773l6.855-8.918h-46.637c-4.801 0-6.172-3.426-4.801-7.543 3.43-7.543 8.914-19.891 12.344-26.062.688-1.371 2.746-4.117 6.172-4.117h87.793c-.684 6.859-.684 13.035-1.371 19.891-2.742 17.148-8.918 33.609-19.891 47.328-17.148 22.633-39.781 37.035-68.586 41.152-24.008 3.426-45.953-1.375-65.16-15.777-17.832-13.719-28.121-31.551-30.863-53.496-3.43-26.062 4.801-50.07 20.578-70.645 17.145-22.637 39.777-37.039 67.898-41.84 22.637-4.113 44.582-1.371 63.789 11.66 13.031 8.23 21.945 19.891 28.117 34.293.688 2.742 0 3.43-2.742 4.117zm0 0"/><path d="M390.262 218.277c-21.949-.684-41.84-6.859-58.984-21.262-14.406-12.344-23.32-28.121-26.066-46.637-4.113-27.437 3.43-51.441 19.891-72.703 17.832-23.32 39.098-34.98 67.902-40.469 24.691-4.113 48.012-2.055 68.586 12.348 19.207 13.031 30.867 30.863 34.297 54.184 4.113 32.922-5.488 58.984-27.437 81.617-15.773 16.461-35.664 26.063-57.613 30.867-7.543 1.371-14.402 1.371-20.574 2.055zm57.613-97.391c0-3.43 0-5.488-.687-8.23-4.113-24.008-26.062-37.727-49.383-32.238-22.633 4.801-37.035 19.203-42.523 41.84-4.117 18.516 4.801 37.723 21.949 45.953 13.031 5.484 26.746 4.801 39.094-1.371 19.891-9.605 30.18-25.379 31.551-45.953zm0 0"/></svg>