<svg xmlns="http://www.w3.org/2000/svg" width="256" height="256" xmlns:v="https://vecta.io/nano"><path d="M0 0h256v256H0z" fill="rgb(94.117647%,85.882353%,30.980392%)"/><path d="M235.047 194.945c-1.871-11.68-9.488-21.488-32.047-30.637-7.836-3.602-16.574-6.184-19.176-12.121-.926-3.453-1.047-5.402-.465-7.492 1.68-6.793 9.785-8.91 16.207-6.961 4.137 1.387 8.055 4.574 10.418 9.66l18.738-12.02c-2.824-4.383-4.332-6.402-6.184-8.273-6.641-7.422-15.695-11.246-30.176-10.953l-7.543.973c-7.227 1.828-14.113 5.621-18.152 10.707-12.117 13.75-8.664 37.816 6.082 47.723 14.527 10.902 35.871 13.383 38.598 23.578 2.652 12.484-9.176 16.523-20.93 15.09-8.664-1.801-13.48-6.207-18.687-14.211l-19.445 11.215c2.336 5.113 4.793 7.426 8.711 11.852 18.543 18.813 64.949 17.887 73.273-10.586.34-.973 2.578-7.492.777-17.543zm-95.879-77.289h-23.945l-.094 61.91c0 13.164.68 25.234-1.461 28.934-3.504 7.273-12.582 6.375-16.719 4.961-4.211-2.066-6.352-5.012-8.832-9.172-.684-1.191-1.195-2.117-1.363-2.191l-19.469 11.926c3.238 6.645 8.008 12.41 14.113 16.156 9.125 5.477 21.391 7.156 34.215 4.211 8.348-2.434 15.551-7.469 19.32-15.137 5.453-10.051 4.285-22.215 4.234-35.672v-65.926zm0 0" fill="rgb(19.607843%,20%,18.823529%)"/></svg>