<?xml version="1.0" encoding="UTF-8"?>
<svg xmlns="http://www.w3.org/2000/svg" xmlns:xlink="http://www.w3.org/1999/xlink" width="256px" height="256px" viewBox="0 0 256 256" version="1.1">
<g id="surface1">
<rect x="0" y="0" width="256" height="256" style="fill:rgb(94.117647%,85.882353%,30.980392%);fill-opacity:1;stroke:none;"/>
<path style=" stroke:none;fill-rule:nonzero;fill:rgb(19.607843%,20%,18.823529%);fill-opacity:1;" d="M 235.046875 194.945312 C 233.175781 183.265625 225.558594 173.457031 203 164.308594 C 195.164062 160.707031 186.425781 158.125 183.824219 152.1875 C 182.898438 148.734375 182.777344 146.785156 183.359375 144.695312 C 185.039062 137.902344 193.144531 135.785156 199.566406 137.734375 C 203.703125 139.121094 207.621094 142.308594 209.984375 147.394531 C 221.03125 140.242188 221.007812 140.289062 228.722656 135.375 C 225.898438 130.992188 224.390625 128.972656 222.539062 127.101562 C 215.898438 119.679688 206.84375 115.855469 192.363281 116.148438 C 189.859375 116.464844 187.328125 116.804688 184.820312 117.121094 C 177.59375 118.949219 170.707031 122.742188 166.667969 127.828125 C 154.550781 141.578125 158.003906 165.644531 172.75 175.550781 C 187.277344 186.453125 208.621094 188.933594 211.347656 199.128906 C 214 211.613281 202.171875 215.652344 190.417969 214.21875 C 181.753906 212.417969 176.9375 208.011719 171.730469 200.007812 C 162.140625 205.554688 162.140625 205.554688 152.285156 211.222656 C 154.621094 216.335938 157.078125 218.648438 160.996094 223.074219 C 179.539062 241.886719 225.945312 240.960938 234.269531 212.488281 C 234.609375 211.515625 236.847656 204.996094 235.046875 194.945312 Z M 139.167969 117.65625 L 115.222656 117.65625 C 115.222656 138.34375 115.128906 158.878906 115.128906 179.566406 C 115.128906 192.730469 115.808594 204.800781 113.667969 208.5 C 110.164062 215.773438 101.085938 214.875 96.949219 213.460938 C 92.738281 211.394531 90.597656 208.449219 88.117188 204.289062 C 87.433594 203.097656 86.921875 202.171875 86.753906 202.097656 C 80.253906 206.066406 73.78125 210.054688 67.285156 214.023438 C 70.523438 220.667969 75.292969 226.433594 81.398438 230.179688 C 90.523438 235.65625 102.789062 237.335938 115.613281 234.390625 C 123.960938 231.957031 131.164062 226.921875 134.933594 219.253906 C 140.386719 209.203125 139.21875 197.039062 139.167969 183.582031 C 139.292969 161.628906 139.167969 139.679688 139.167969 117.65625 Z M 139.167969 117.65625 "/>
</g>
</svg>
