<svg xmlns="http://www.w3.org/2000/svg" width="256" height="256" xmlns:v="https://vecta.io/nano"><defs><linearGradient id="A" gradientUnits="userSpaceOnUse" x1="189.49" y1="73.782" x2=".273" y2="72.311"><stop offset="0" stop-color="rgb(21.176471%,41.568627%,58.823529%)"/><stop offset="1" stop-color="rgb(21.176471%,47.45098%,69.019608%)"/></linearGradient><linearGradient id="B" gradientUnits="userSpaceOnUse" x1="255.848" y1="158.873" x2="-118.711" y2="158.873"><stop offset="0" stop-color="rgb(100%,78.431373%,21.176471%)"/><stop offset="1" stop-color="rgb(100%,90.980392%,45.098039%)"/></linearGradient></defs><path d="M66.246 35.324c0-17.23 4.727-26.602 30.816-31.066 17.715-3.035 40.426-3.414 61.609 0 16.734 2.703 30.816 14.887 30.816 31.066v56.844c0 16.672-13.672 30.328-30.816 30.328H97.063c-20.91 0-38.531 17.43-38.531 37.133v27.273H37.348c-17.922 0-28.352-12.633-32.734-30.309-5.914-23.746-5.664-37.895 0-60.637 4.906-19.84 20.59-30.305 38.508-30.305h84.758v-7.59H66.246zm0 0" fill="url(#A)"/><path d="M189.488 217.23c0 17.23-15.293 25.957-30.812 30.309-23.355 6.563-42.094 5.559-61.613 0-16.297-4.641-30.816-14.125-30.816-30.309v-56.84c0-16.359 13.949-30.328 30.816-30.328h61.613c20.52 0 38.531-17.34 38.531-37.895V65.652h23.102c17.941 0 26.387 13.035 30.816 30.309 6.16 23.992 6.438 41.934 0 60.637-6.234 18.168-12.898 30.309-30.816 30.309h-92.43v7.586h61.609v22.742zm0 0" fill="url(#B)"/><path d="M81.656 31.555c0-6.297 5.156-11.383 11.551-11.383 6.367 0 11.551 5.086 11.551 11.383 0 6.27-5.184 11.359-11.551 11.359-6.391 0-11.551-5.09-11.551-11.359zm69.32 189.449c0-6.273 5.184-11.359 11.555-11.359 6.391 0 11.551 5.09 11.551 11.359 0 6.293-5.16 11.383-11.551 11.383-6.371 0-11.555-5.09-11.555-11.383zm0 0" fill="rgb(100%,100%,100%)"/></svg>