<?xml version="1.0" encoding="UTF-8"?>
<svg xmlns="http://www.w3.org/2000/svg" xmlns:xlink="http://www.w3.org/1999/xlink" width="256px" height="256px" viewBox="0 0 256 256" version="1.1">
<defs>
<linearGradient id="linear0" gradientUnits="userSpaceOnUse" x1="811.527" y1="574.895" x2="665.255" y2="573.732" gradientTransform="matrix(1.2936,0,0,1.264712,-860.30112,-653.29496)">
<stop offset="0" style="stop-color:rgb(21.176471%,41.568627%,58.823529%);stop-opacity:1;"/>
<stop offset="1" style="stop-color:rgb(21.176471%,47.45098%,69.019608%);stop-opacity:1;"/>
</linearGradient>
<linearGradient id="linear1" gradientUnits="userSpaceOnUse" x1="862.824" y1="642.176" x2="573.276" y2="642.176" gradientTransform="matrix(1.2936,0,0,1.264712,-860.30112,-653.29496)">
<stop offset="0" style="stop-color:rgb(100%,78.431373%,21.176471%);stop-opacity:1;"/>
<stop offset="1" style="stop-color:rgb(100%,90.980392%,45.098039%);stop-opacity:1;"/>
</linearGradient>
</defs>
<g id="surface1">
<path style=" stroke:none;fill-rule:nonzero;fill:url(#linear0);" d="M 66.246094 35.324219 C 66.246094 18.09375 70.972656 8.722656 97.0625 4.257812 C 114.777344 1.222656 137.488281 0.84375 158.671875 4.257812 C 175.40625 6.960938 189.488281 19.144531 189.488281 35.324219 L 189.488281 92.167969 C 189.488281 108.839844 175.816406 122.496094 158.671875 122.496094 L 97.0625 122.496094 C 76.152344 122.496094 58.53125 139.925781 58.53125 159.628906 L 58.53125 186.902344 L 37.347656 186.902344 C 19.425781 186.902344 8.996094 174.269531 4.613281 156.59375 C -1.300781 132.847656 -1.050781 118.699219 4.613281 95.957031 C 9.519531 76.117188 25.203125 65.652344 43.121094 65.652344 L 127.878906 65.652344 L 127.878906 58.0625 L 66.246094 58.0625 Z M 66.246094 35.324219 "/>
<path style=" stroke:none;fill-rule:nonzero;fill:url(#linear1);" d="M 189.488281 217.230469 C 189.488281 234.460938 174.195312 243.1875 158.675781 247.539062 C 135.320312 254.101562 116.582031 253.097656 97.0625 247.539062 C 80.765625 242.898438 66.246094 233.414062 66.246094 217.230469 L 66.246094 160.390625 C 66.246094 144.03125 80.195312 130.0625 97.0625 130.0625 L 158.675781 130.0625 C 179.195312 130.0625 197.207031 112.722656 197.207031 92.167969 L 197.207031 65.652344 L 220.308594 65.652344 C 238.25 65.652344 246.695312 78.6875 251.125 95.960938 C 257.285156 119.953125 257.5625 137.894531 251.125 156.597656 C 244.890625 174.765625 238.226562 186.90625 220.308594 186.90625 L 127.878906 186.90625 L 127.878906 194.492188 L 189.488281 194.492188 L 189.488281 217.234375 Z M 189.488281 217.230469 "/>
<path style=" stroke:none;fill-rule:nonzero;fill:rgb(100%,100%,100%);fill-opacity:1;" d="M 81.65625 31.554688 C 81.65625 25.257812 86.8125 20.171875 93.207031 20.171875 C 99.574219 20.171875 104.757812 25.257812 104.757812 31.554688 C 104.757812 37.824219 99.574219 42.914062 93.207031 42.914062 C 86.816406 42.914062 81.65625 37.824219 81.65625 31.554688 Z M 150.976562 221.003906 C 150.976562 214.730469 156.160156 209.644531 162.53125 209.644531 C 168.921875 209.644531 174.082031 214.734375 174.082031 221.003906 C 174.082031 227.296875 168.921875 232.386719 162.53125 232.386719 C 156.160156 232.386719 150.976562 227.296875 150.976562 221.003906 Z M 150.976562 221.003906 "/>
</g>
</svg>
